<svg width="56" height="60" viewBox="0 0 56 60" fill="none" xmlns="http://www.w3.org/2000/svg">
<path d="M46.4167 46.908C35.6471 57.6775 20.3529 57.6775 9.58336 46.908C12.0904 44.4009 16.8479 41.6218 23.2155 39.0748V33.9807C23.2155 33.9807 20.6685 33.0867 20.6685 27.613C18.1214 27.613 18.1214 22.5189 20.6685 22.5189C20.6685 21.7854 16.4021 15.0535 21.7663 16.1513C23.0398 11.0571 35.5942 11.0571 36.8678 16.1513C37.6268 19.1848 35.7267 21.9815 35.7267 22.5189C38.1948 22.5189 37.5198 27.613 35.747 27.613C35.747 33.0867 33.4038 33.9807 33.4038 33.9807V39.0748C39.7714 41.6218 43.1672 43.7473 46.4167 46.908Z" stroke="#555555" stroke-width="2.20833" stroke-linecap="round" stroke-linejoin="round"/>
<path d="M55 28.1137C55 43.0688 42.9092 55.1878 28 55.1878C13.0908 55.1878 1 43.0688 1 28.1137C1 13.1587 13.0908 1.03967 28 1.03967C42.9092 1.03967 55 13.1587 55 28.1137Z" stroke="#555555" stroke-width="2"/>
</svg>
