<svg width="57" height="57" viewBox="0 0 57 57" fill="none" xmlns="http://www.w3.org/2000/svg">
<path fill-rule="evenodd" clip-rule="evenodd" d="M24.0413 14.7474C18.3574 14.7474 13.7496 19.3551 13.7496 25.039C13.7496 30.723 18.3574 35.3307 24.0413 35.3307C29.7252 35.3307 34.333 30.723 34.333 25.039C34.333 19.3551 29.7252 14.7474 24.0413 14.7474ZM12.1663 25.039C12.1663 18.4807 17.4829 13.164 24.0413 13.164C30.5997 13.164 35.9163 18.4807 35.9163 25.039C35.9163 28.034 34.8076 30.7699 32.9782 32.8589L43.5984 43.4791C43.9075 43.7882 43.9075 44.2895 43.5984 44.5986C43.2892 44.9078 42.788 44.9078 42.4788 44.5986L31.8585 33.9783C29.7699 35.8063 27.0349 36.914 24.0413 36.914C17.4829 36.914 12.1663 31.5974 12.1663 25.039Z" fill="#555555"/>
<circle cx="27.9996" cy="28.9974" r="27" stroke="#555555" stroke-width="2"/>
</svg>
